# xmcd
#
# Track frame offsets:
#	150
#	16414
#	27581
#	39396
#	53547
#	66576
#	83024
#	95762
#	113722
#	122531
#	134091
#	143559
#	157560
#
# Disc length: 2218 seconds
#
# Revision: 1
# Processed by: cddbd v1.5.2PL0 Copyright (c) Steve Scherf et al.
# Submitted via: audiograbber 1.83.01
#
DISCID=a608a80d
DTITLE=The Baldknobbers - Unbroken Circle: The Baldknobbers
DYEAR=2003
DGENRE=Country
TTITLE0=Will The Circle Be Unbroken
TTITLE1=If You Don't Believe
TTITLE2=This Ole House
TTITLE3=Family Bible
TTITLE4=Don't Worry About Me
TTITLE5=Swing Low Sweet Chariot - Glory Glory Hallelujah
TTITLE6=Where The Soul Never Dies
TTITLE7=Go Rest High On That Mountain
TTITLE8=Build Me A Cabin In Gloryland
TTITLE9=I Saw The Light
TTITLE10=Hallelujah, I'm Ready
TTITLE11=I Have A Mansion Over In Glory
TTITLE12=I'll Go Steppin' Too
EXTD=
EXTT0=
EXTT1=
EXTT2=
EXTT3=
EXTT4=
EXTT5=
EXTT6=
EXTT7=
EXTT8=
EXTT9=
EXTT10=
EXTT11=
EXTT12=
PLAYORDER=
